<svg width="399" height="529" viewBox="0 0 399 529" fill="none" xmlns="http://www.w3.org/2000/svg">
<path d="M398.5 264.5C398.5 337.441 376.2 403.458 340.169 451.229C304.138 498.999 254.399 528.5 199.5 528.5C144.601 528.5 94.8622 498.999 58.8314 451.229C22.8003 403.458 0.5 337.441 0.5 264.5C0.5 191.559 22.8003 125.542 58.8314 77.7713C94.8622 30.0011 144.601 0.5 199.5 0.5C254.399 0.5 304.138 30.0011 340.169 77.7713C376.2 125.542 398.5 191.559 398.5 264.5Z" stroke="black"/>
<path d="M4.5 309.5L105 200.5L185.5 309.5L290 200.5L392.5 309.5" stroke="black"/>
</svg>
